PathFileType	4	(X/Y/Z)	Kaydara																																																																																																																									
DataRate	CameraRate	NumFrames	NumMarkers	Units	OrigDataRate	OrigDataStartFrame	OrigNumFrames																																																																																																																					
30	30	4	41	mm	30	92	147																																																																																																																					
Frame#	Time	NABA_LFHD			NABA_RFHD			NABA_LBHD			NABA_RBHD			NABA_LFTShould			NABA_RFTShould			NABA_LRRShould			NABA_RRRShould			NABA_T10			NABA_STRN			NABA_TRUN			NABA_LSHO			NABA_LUPA			NABA_LELB			NABA_LFRM			NABA_LWRA			NABA_LWRB			NABA_LFIN			NABA_RSHO			NABA_RUPA			NABA_RELB			NABA_RFRM			NABA_RWRA			NABA_RWRB			NABA_RFIN			NABA_LFWT			NABA_RFWT			NABA_LBWT			NABA_RBWT			NABA_LTHI			NABA_LKNE			NABA_LSHN			NABA_LANK			NABA_LHEE			NABA_LTOE			NABA_RTHI			NABA_RKNE			NABA_RSHN			NABA_RANK			NABA_RHEE			NABA_RTOE		
		X1	Y1	Z1	X2	Y2	Z2	X3	Y3	Z3	X4	Y4	Z4	X5	Y5	Z5	X6	Y6	Z6	X7	Y7	Z7	X8	Y8	Z8	X9	Y9	Z9	X10	Y10	Z10	X11	Y11	Z11	X12	Y12	Z12	X13	Y13	Z13	X14	Y14	Z14	X15	Y15	Z15	X16	Y16	Z16	X17	Y17	Z17	X18	Y18	Z18	X19	Y19	Z19	X20	Y20	Z20	X21	Y21	Z21	X22	Y22	Z22	X23	Y23	Z23	X24	Y24	Z24	X25	Y25	Z25	X26	Y26	Z26	X27	Y27	Z27	X28	Y28	Z28	X29	Y29	Z29	X30	Y30	Z30	X31	Y31	Z31	X32	Y32	Z32	X33	Y33	Z33	X34	Y34	Z34	X35	Y35	Z35	X36	Y36	Z36	X37	Y37	Z37	X38	Y38	Z38	X39	Y39	Z39	X40	Y40	Z40	X41	Y41	Z41
																																																																																																																												
92	3.043	270.06205	1527.12097	-417.4696	99.10827	1505.64621	-407.62009	291.67015	1519.8793	-542.00508	71.57431	1506.60767	-506.33274	259.39367	1275.8139	-483.72559	114.78671	1257.97653	-507.28333	274.2276	1343.24677	-590.50682	127.24655	1339.41406	-607.40295	221.67883	1192.33894	-698.69133	191.12585	1212.19658	-454.76879	189.65538	1109.76799	-420.27061	362.35279	1300.13733	-514.40731	445.5587	1082.72957	-559.34906	470.4266	994.74648	-532.61795	470.75634	911.89568	-544.31454	392.99225	778.54607	-465.4911	462.55047	775.49149	-452.76337	437.58335	724.84627	-411.56483	37.89431	1297.41302	-561.83769	9.47919	1160.17715	-712.76314	-72.92377	1048.87314	-738.70033	-69.83958	941.87363	-750.97519	0.80296	816.74088	-675.35309	-68.11992	800.11681	-698.31291	-72.32321	778.39989	-662.93457	338.79177	897.44064	-537.70454	72.99565	884.91295	-534.80572	290.18196	957.32399	-702.35931	111.39064	973.72429	-704.59419	343.61485	633.60584	-736.45912	331.91765	473.99258	-720.81635	272.13284	281.343	-740.6916	295.50421	144.81492	-834.33479	238.53884	106.62045	-899.43687	260.14652	63.47738	-732.65656	77.86082	604.89594	-575.04066	99.07474	510.49244	-394.32159	103.82722	335.81566	-365.80162	95.33343	134.41509	-372.37091	142.84172	72.05823	-423.03967	119.49667	90.89976	-236.05284
93	3.077	267.13249	1507.23999	-357.3275	95.84449	1487.81342	-349.35333	289.53148	1503.35907	-481.93325	69.1009	1492.2464	-448.23063	253.05563	1264.7728	-426.0107	108.4561	1247.88231	-457.93739	274.14799	1330.75485	-533.43998	128.54245	1329.70032	-556.75781	223.51805	1178.57101	-643.40309	184.81495	1199.80843	-402.82463	182.67612	1097.93961	-368.25287	354.67644	1295.65887	-449.74884	463.2663	1107.10823	-499.13197	503.64418	1018.31459	-469.40056	498.2262	931.14746	-459.12491	388.28465	832.83791	-370.40115	451.7075	829.79179	-336.51512	404.7768	798.05931	-291.38845	37.54391	1296.29822	-514.27944	-3.83447	1173.11775	-667.87346	-96.58595	1069.66652	-694.99496	-87.99929	960.63103	-674.39056	-3.02881	873.12294	-568.43098	-74.31604	850.31456	-569.12617	-68.31839	842.08534	-526.16405	341.19667	887.04468	-482.7837	72.99852	866.23703	-479.1404	289.16964	942.62085	-647.90115	108.85304	952.29492	-651.78871	347.48951	629.58649	-689.7834	338.20976	468.85208	-683.25066	277.35859	276.42467	-718.99849	300.23323	148.35026	-824.3071	243.90064	116.51843	-893.56201	261.91742	63.41595	-731.47614	77.93341	586.24992	-513.97163	95.94221	492.33025	-335.07771	101.21735	332.59312	-287.11649	89.23194	133.79082	-261.20552	131.45035	62.31609	-303.53283	123.98029	110.57545	-119.13042
94	3.11	262.97863	1497.02621	-295.19236	91.64007	1478.34702	-285.93908	284.49865	1493.22037	-419.958	64.33299	1482.89612	-384.58939	246.20684	1260.57518	-365.13489	104.0513	1243.95309	-397.14378	265.3548	1327.3793	-472.51442	125.81224	1324.05457	-494.83719	222.80375	1173.42148	-581.52321	178.3037	1193.10463	-344.82235	174.87179	1092.37671	-310.75089	345.45582	1298.27972	-390.1659	478.94142	1135.37354	-451.42822	521.91528	1052.3497	-429.22096	508.13778	970.96474	-400.73769	375.87086	931.61987	-294.88455	437.21073	921.5596	-258.35293	383.37086	919.57848	-209.40731	37.26873	1296.18622	-457.13055	-8.69169	1195.58205	-611.6848	-101.83962	1100.22018	-649.80103	-94.93233	1005.81245	-590.37678	-8.53047	969.96445	-460.33226	-80.83498	950.186	-448.73634	-70.0234	957.30087	-404.05201	338.73081	876.14975	-419.94381	69.97647	859.26689	-420.33203	284.43172	929.31786	-588.80646	108.88804	945.44388	-591.23039	345.8704	626.43929	-633.78815	338.2019	466.27724	-635.46825	279.1753	275.8721	-689.95651	304.69448	160.25906	-808.88428	250.15593	136.5375	-882.20039	264.80108	64.43292	-727.35207	75.25534	579.65607	-456.58321	91.22999	486.50265	-279.72828	98.56382	326.45779	-226.50513	90.84107	128.70547	-193.15258	136.5925	56.62065	-231.49086	119.68523	108.95109	-48.72977
95	3.143	258.66005	1503.16605	-230.75623	87.54445	1484.4252	-219.90482	279.47468	1495.00961	-355.39864	59.36735	1485.66284	-318.61158	243.93431	1263.25027	-296.73094	99.41304	1244.51393	-326.02406	257.72764	1331.40045	-404.97623	116.64885	1325.96619	-422.06032	215.71058	1176.37352	-512.33887	174.47117	1195.24925	-277.47545	169.8667	1095.61615	-242.97037	341.65806	1304.59976	-328.78227	459.78008	1153.8385	-419.7958	511.1171	1075.17044	-429.21909	489.46819	998.48488	-385.95135	376.67454	1018.41263	-255.12926	434.62894	983.58612	-230.12835	392.81773	1011.14662	-171.53067	29.22306	1296.0405	-382.34123	20.34307	1200.12268	-544.50836	-71.7751	1121.60294	-606.66264	-83.84999	1041.77002	-525.26802	-20.84076	1049.81056	-378.69961	-92.08951	1028.83537	-372.64702	-86.46379	1054.3364	-329.37511	331.97601	874.50935	-351.55613	64.27606	860.55923	-356.36131	278.99391	934.10088	-520.84095	105.57705	952.28531	-524.10538	338.85532	627.11201	-568.36487	334.09637	467.91618	-570.35004	279.36304	281.63261	-645.93674	305.18627	185.37771	-781.58569	250.35866	173.14432	-855.87227	266.92192	66.30866	-717.66251	73.71606	581.91448	-406.70601	84.16631	478.04832	-237.81237	93.14248	318.03768	-189.18068	93.48762	119.87537	-164.12697	143.38801	61.33654	-204.45179	115.1016	71.80482	-13.85382
